<svg width="185" height="20" viewBox="0 0 185 20" fill="none" xmlns="http://www.w3.org/2000/svg">
<path d="M9.20181 0H0L5.8614 10.0005L11.7228 20L16.3242 12.1515L15.0632 10.0016L9.20181 0Z" fill="#00A1ED"/>
<path d="M23.4447 0L17.5822 10.0005L16.3223 12.1504L20.9226 19.9989L26.7851 9.99946L32.6486 0H23.4447Z" fill="#0065B2"/>
<g style="mix-blend-mode:lighten">
<path d="M23.4478 0H9.20508L15.0675 10.0005L16.3286 12.1504L17.5885 10.0005L23.4478 0Z" fill="#FFD400"/>
</g>
<path d="M23.4478 0H9.20508L15.0675 10.0005L16.3286 12.1504L17.5885 10.0005L23.4478 0Z" fill="#AE0721"/>
<path d="M44.6289 14.6602L48.8828 0.9375H52.457L46.4336 18H44.0547L44.6289 14.6602ZM40.7031 0.9375L44.9336 14.6602L45.543 18H43.1406L37.1406 0.9375H40.7031Z" fill="white"/>
<path d="M65.7634 15.4688V18H56.6931V15.4688H65.7634ZM57.6775 0.9375V18H54.4548V0.9375H57.6775ZM64.5798 7.98047V10.4531H56.6931V7.98047H64.5798ZM65.7283 0.9375V3.48047H56.6931V0.9375H65.7283Z" fill="white"/>
<path d="M68.2417 0.9375H74.4409C75.7378 0.9375 76.8511 1.13281 77.7808 1.52344C78.7105 1.91406 79.4253 2.49219 79.9253 3.25781C80.4253 4.02344 80.6753 4.96484 80.6753 6.08203C80.6753 6.96484 80.5191 7.73047 80.2066 8.37891C79.8941 9.02734 79.4527 9.57031 78.8823 10.0078C78.3198 10.4453 77.6558 10.7891 76.8902 11.0391L75.8823 11.5547H70.4097L70.3862 9.01172H74.4761C75.1402 9.01172 75.6909 8.89453 76.1284 8.66016C76.5659 8.42578 76.8941 8.10156 77.1128 7.6875C77.3394 7.27344 77.4527 6.80078 77.4527 6.26953C77.4527 5.69922 77.3433 5.20703 77.1245 4.79297C76.9058 4.37109 76.5737 4.04688 76.1284 3.82031C75.6831 3.59375 75.1206 3.48047 74.4409 3.48047H71.4644V18H68.2417V0.9375ZM77.8745 18L73.9253 10.3594L77.3355 10.3477L81.3316 17.8359V18H77.8745Z" fill="white"/>
<path d="M85.1692 0.9375L88.9192 8.89453L92.6927 0.9375H96.2317L90.5598 11.7539V18H87.2903V11.7539L81.6067 0.9375H85.1692Z" fill="white"/>
<path d="M113.329 13.5703C113.329 13.2422 113.278 12.9492 113.177 12.6914C113.083 12.4258 112.907 12.1875 112.649 11.9766C112.399 11.7578 112.044 11.5469 111.583 11.3438C111.13 11.1328 110.544 10.9141 109.825 10.6875C109.028 10.4375 108.286 10.1562 107.598 9.84375C106.911 9.53125 106.305 9.16797 105.782 8.75391C105.266 8.33984 104.864 7.86328 104.575 7.32422C104.286 6.77734 104.141 6.14453 104.141 5.42578C104.141 4.72266 104.29 4.08203 104.587 3.50391C104.891 2.92578 105.321 2.42969 105.876 2.01562C106.43 1.59375 107.083 1.26953 107.833 1.04297C108.591 0.816406 109.427 0.703125 110.341 0.703125C111.606 0.703125 112.7 0.933594 113.622 1.39453C114.552 1.85547 115.27 2.48047 115.778 3.26953C116.286 4.05859 116.54 4.94531 116.54 5.92969H113.329C113.329 5.39844 113.216 4.92969 112.989 4.52344C112.77 4.11719 112.434 3.79688 111.981 3.5625C111.536 3.32812 110.973 3.21094 110.294 3.21094C109.637 3.21094 109.091 3.30859 108.653 3.50391C108.223 3.69922 107.899 3.96484 107.68 4.30078C107.47 4.63672 107.364 5.01172 107.364 5.42578C107.364 5.73828 107.438 6.01953 107.587 6.26953C107.735 6.51172 107.958 6.74219 108.255 6.96094C108.552 7.17188 108.919 7.37109 109.356 7.55859C109.802 7.73828 110.317 7.91797 110.903 8.09766C111.841 8.37891 112.661 8.69141 113.364 9.03516C114.075 9.37891 114.665 9.76953 115.134 10.207C115.61 10.6445 115.966 11.1367 116.2 11.6836C116.442 12.2305 116.563 12.8516 116.563 13.5469C116.563 14.2812 116.419 14.9375 116.13 15.5156C115.841 16.0938 115.427 16.5859 114.887 16.9922C114.348 17.3984 113.7 17.707 112.942 17.918C112.192 18.1289 111.352 18.2344 110.423 18.2344C109.595 18.2344 108.774 18.125 107.962 17.9062C107.157 17.6797 106.427 17.3438 105.77 16.8984C105.114 16.4453 104.591 15.875 104.2 15.1875C103.809 14.4922 103.614 13.6797 103.614 12.75H106.848C106.848 13.2891 106.934 13.75 107.106 14.1328C107.286 14.5078 107.536 14.8164 107.856 15.0586C108.184 15.293 108.567 15.4648 109.005 15.5742C109.442 15.6836 109.915 15.7383 110.423 15.7383C111.079 15.7383 111.618 15.6484 112.04 15.4688C112.47 15.2812 112.79 15.0234 113.001 14.6953C113.22 14.3672 113.329 13.9922 113.329 13.5703Z" fill="white"/>
<path d="M120.694 0.9375H123.483L128.147 13.7812L132.799 0.9375H135.6L129.26 18H127.022L120.694 0.9375ZM119.288 0.9375H122.018L122.51 12.7383V18H119.288V0.9375ZM134.264 0.9375H137.006V18H133.784V12.7383L134.264 0.9375Z" fill="white"/>
<path d="M147.524 3.52734L142.66 18H139.25L145.625 0.9375H147.805L147.524 3.52734ZM151.59 18L146.703 3.52734L146.41 0.9375H148.602L155.012 18H151.59ZM151.368 11.6602V14.2031H142.215V11.6602H151.368Z" fill="white"/>
<path d="M157.01 0.9375H163.209C164.506 0.9375 165.619 1.13281 166.549 1.52344C167.479 1.91406 168.193 2.49219 168.693 3.25781C169.193 4.02344 169.443 4.96484 169.443 6.08203C169.443 6.96484 169.287 7.73047 168.975 8.37891C168.662 9.02734 168.221 9.57031 167.65 10.0078C167.088 10.4453 166.424 10.7891 165.658 11.0391L164.65 11.5547H159.178L159.154 9.01172H163.244C163.908 9.01172 164.459 8.89453 164.897 8.66016C165.334 8.42578 165.662 8.10156 165.881 7.6875C166.107 7.27344 166.221 6.80078 166.221 6.26953C166.221 5.69922 166.111 5.20703 165.893 4.79297C165.674 4.37109 165.342 4.04688 164.897 3.82031C164.451 3.59375 163.889 3.48047 163.209 3.48047H160.232V18H157.01V0.9375ZM166.643 18L162.693 10.3594L166.104 10.3477L170.1 17.8359V18H166.643Z" fill="white"/>
<path d="M179.082 0.9375V18H175.871V0.9375H179.082ZM184.379 0.9375V3.48047H170.633V0.9375H184.379Z" fill="white"/>
</svg>
